<svg width="24" height="24" viewBox="0 0 24 24" fill="none" xmlns="http://www.w3.org/2000/svg">
<path fill-rule="evenodd" clip-rule="evenodd" d="M2.496 19.968C1.008 19.296 0 17.76 0 16.08V2.88C0 1.296 1.296 0 2.88 0H13.44C15.024 0 16.32 1.296 16.32 2.88V4.8C16.32 5.328 15.888 5.76 15.36 5.76C14.832 5.76 14.4 5.328 14.4 4.8V2.88C14.4 2.352 13.968 1.92 13.44 1.92H5.376L11.856 4.896C12.192 5.04 12.432 5.376 12.432 5.76V17.28H13.392C13.92 17.28 14.352 16.848 14.352 16.32V14.4C14.352 13.872 14.784 13.44 15.312 13.44C15.84 13.44 16.272 13.872 16.272 14.4V16.32C16.272 17.904 14.976 19.2 13.392 19.2H12.432V23.04C12.432 23.568 12 24 11.472 24C11.3581 24 11.2742 23.9699 11.1728 23.9336C11.146 23.924 11.1181 23.914 11.088 23.904L2.496 19.968ZM2.016 2.496C1.968 2.592 1.92 2.736 1.92 2.88V16.08C1.92 17.04 2.496 17.856 3.312 18.24L10.56 21.552V6.384L2.016 2.496ZM18.528 6.144C18.864 5.76 19.488 5.712 19.872 6.048L22.752 8.928C23.136 9.312 23.136 9.888 22.752 10.272L19.872 13.152C19.872 13.1817 19.8537 13.193 19.8283 13.2087C19.8127 13.2183 19.7943 13.2297 19.776 13.248C19.392 13.584 18.768 13.536 18.432 13.152C18.096 12.768 18.144 12.144 18.528 11.808L19.776 10.56H15.36C14.832 10.56 14.4 10.128 14.4 9.6C14.4 9.072 14.832 8.64 15.36 8.64H19.776L18.528 7.392C18.24 7.056 18.24 6.48 18.528 6.144Z" fill="#9E9E9E"/>
</svg>
