<svg width="72" height="72" viewBox="0 0 72 72" fill="none" xmlns="http://www.w3.org/2000/svg">
<path fill-rule="evenodd" clip-rule="evenodd" d="M10.9121 61.8192C11.3708 59.458 12.5933 57.0742 15.5454 56.325C21.9575 54.6944 27.4587 51.9431 27.4974 51.9237C28.3955 50.3951 28.5621 47.7026 28.5621 47.7026L28.6705 47.709C26.631 45.5191 25.7386 42.7706 25.3696 40.4587C25.2196 40.5922 25.0416 40.6899 24.8391 40.6906C24.2325 40.6935 23.417 39.8218 22.5354 36.44C21.4328 32.2074 22.473 31.3817 23.4744 31.3947C23.618 31.3961 23.7594 31.4148 23.8951 31.4435C23.8915 31.4155 23.8887 31.3997 23.8887 31.3997C21.0911 19.6769 26.9217 19.2318 27.8492 19.2332C27.9282 19.2332 27.9713 19.2368 27.9713 19.2368C28.4666 17.0297 31.28 14.7436 34.2161 14.6689C34.6354 14.6581 35.0582 14.6926 35.476 14.7788C36.5212 14.9942 37.9146 15.0674 39.3353 15.0638C42.4624 15.0573 45.7245 14.6876 45.7245 14.6876C45.8207 16.1458 44.5709 17.1582 44.5709 17.1582C51.6872 21.4963 48.7288 31.3609 48.7288 31.3609L48.7317 31.4528C48.9179 31.3968 48.9633 31.3965 49.1534 31.3956C49.1677 31.3956 49.1829 31.3955 49.199 31.3954C50.1969 31.3875 51.2292 32.2197 50.1294 36.4408C49.2558 39.7938 48.4453 40.6784 47.8408 40.6913C47.6714 40.6956 47.5185 40.631 47.385 40.5326C47.0095 42.8259 46.1165 45.5371 44.1028 47.7026C44.1028 47.7026 44.2916 50.7433 45.3462 52.1958C45.3462 52.1958 50.6851 54.6887 57.1202 56.3236C59.8461 57.0161 61.0974 59.1017 61.6344 61.2761C55.1061 67.8966 46.0322 72.0003 35.9997 72.0003C26.2446 72.0003 17.3957 68.1202 10.9121 61.8192Z" fill="#323232"/>
<circle cx="36" cy="36" r="35.5" stroke="#424242" stroke-dasharray="4 4"/>
</svg>
