<svg width="24" height="24" viewBox="0 0 24 24" fill="none" xmlns="http://www.w3.org/2000/svg">
<path fill-rule="evenodd" clip-rule="evenodd" d="M15.8769 5H8.12311C7.20537 5 6.4054 5.62459 6.18282 6.51493L5.56155 9H18.4384L17.8172 6.51493L19.7575 6.02986L20.5 9H21C22.6569 9 24 10.3431 24 12V13H23.9998V14.9999C23.9998 15.7955 23.6838 16.5586 23.1212 17.1212C22.5586 17.6838 21.7955 17.9999 20.9999 17.9999H20.8574C20.6395 18.8576 20.1419 19.6183 19.4433 20.1617C18.7447 20.705 17.8849 21 16.9999 21C16.1149 21 15.2551 20.705 14.5565 20.1617C13.8579 19.6183 13.3603 18.8576 13.1424 17.9999H10.8574C10.6395 18.8576 10.142 19.6183 9.44336 20.1617C8.74475 20.705 7.88498 21 6.99995 21C6.11493 21 5.25515 20.705 4.55655 20.1617C3.85794 19.6183 3.36037 18.8576 3.14248 17.9999H2.99998C2.20434 17.9999 1.44128 17.6838 0.878674 17.1212C0.316068 16.5586 0 15.7955 0 14.9999V13V12C0 10.3431 1.34315 9 3 9H3.5L4.24254 6.02986C4.6877 4.24919 6.28763 3 8.12311 3H15.8769C17.7124 3 19.3123 4.24919 19.7575 6.02986L17.8172 6.51493C17.5946 5.62459 16.7946 5 15.8769 5ZM1.99999 13V14.9999C1.99999 15.2651 2.10534 15.5195 2.29288 15.707C2.48041 15.8945 2.73477 15.9999 2.99998 15.9999H3.14248C3.36037 15.1421 3.85794 14.3814 4.55655 13.8381C5.24317 13.3041 6.08547 13.0099 6.95442 13H7.04549C7.91444 13.0099 8.75674 13.3041 9.44336 13.8381C10.142 14.3814 10.6395 15.1421 10.8574 15.9999H13.1424C13.3603 15.1421 13.8579 14.3814 14.5565 13.8381C15.2431 13.3041 16.0854 13.0099 16.9544 13H17.0454C17.9144 13.0099 18.7567 13.3041 19.4433 13.8381C20.1419 14.3814 20.6395 15.1421 20.8574 15.9999H20.9999C21.2651 15.9999 21.5194 15.8945 21.707 15.707C21.8945 15.5195 21.9999 15.2651 21.9999 14.9999V13H22V12C22 11.4477 21.5523 11 21 11H18.9384H5.06155H3C2.44772 11 2 11.4477 2 12V13H1.99999ZM5.88882 18.6628C6.21772 18.8826 6.60439 18.9999 6.99995 18.9999C7.53038 18.9999 8.03909 18.7891 8.41416 18.4141C8.78923 18.039 8.99994 17.5303 8.99994 16.9999C8.99994 16.6043 8.88264 16.2176 8.66288 15.8887C8.44312 15.5598 8.13077 15.3035 7.76532 15.1521C7.39987 15.0007 6.99774 14.9611 6.60978 15.0383C6.22182 15.1155 5.86545 15.306 5.58575 15.5857C5.30605 15.8654 5.11557 16.2217 5.0384 16.6097C4.96123 16.9977 5.00083 17.3998 5.15221 17.7652C5.30358 18.1307 5.55993 18.443 5.88882 18.6628ZM15.8888 18.6628C16.2177 18.8826 16.6043 18.9999 16.9999 18.9999C17.5303 18.9999 18.039 18.7891 18.4141 18.4141C18.7892 18.039 18.9999 17.5303 18.9999 16.9999C18.9999 16.6043 18.8826 16.2176 18.6628 15.8887C18.4431 15.5598 18.1307 15.3035 17.7653 15.1521C17.3998 15.0007 16.9977 14.9611 16.6097 15.0383C16.2218 15.1155 15.8654 15.306 15.5857 15.5857C15.306 15.8654 15.1155 16.2217 15.0383 16.6097C14.9612 16.9977 15.0008 17.3998 15.1521 17.7652C15.3035 18.1307 15.5599 18.443 15.8888 18.6628Z" fill="#9E9E9E"/>
</svg>
