<svg width="24" height="24" viewBox="0 0 24 24" fill="none" xmlns="http://www.w3.org/2000/svg">
<path d="M16.9936 10C16.6589 10.0025 16.3249 10.0293 15.994 10.08V10C15.994 9.46957 15.7834 8.96086 15.4085 8.58579C15.0335 8.21072 14.525 8 13.9948 8H12.9951V6H13.9948C14.525 6 15.0335 5.78929 15.4085 5.41422C15.7834 5.03914 15.994 4.53043 15.994 4V2C15.994 1.46957 15.7834 0.960859 15.4085 0.585787C15.0335 0.210714 14.525 0 13.9948 0H4.99813C4.4679 0 3.95938 0.210714 3.58445 0.585787C3.20951 0.960859 2.99888 1.46957 2.99888 2V4H1.99925C1.46902 4 0.9605 4.21071 0.585567 4.58579C0.210635 4.96086 0 5.46957 0 6V8C0 8.53043 0.210635 9.03914 0.585567 9.41422C0.9605 9.78929 1.46902 10 1.99925 10H2.99888V12H1.99925C1.46902 12 0.9605 12.2107 0.585567 12.5858C0.210635 12.9609 0 13.4696 0 14V16C0 16.5304 0.210635 17.0391 0.585567 17.4142C0.9605 17.7893 1.46902 18 1.99925 18H2.99888V20C2.99888 20.5304 3.20951 21.0391 3.58445 21.4142C3.95938 21.7893 4.4679 22 4.99813 22H12.1055C12.9255 22.8038 13.9307 23.3934 15.0323 23.7168C16.134 24.0402 17.2982 24.0874 18.4224 23.8544C19.5466 23.6213 20.5962 23.1152 21.4787 22.3805C22.3612 21.6458 23.0494 20.7052 23.4826 19.6416C23.9159 18.578 24.0809 17.4241 23.9631 16.2816C23.8452 15.1392 23.4482 14.0433 22.807 13.0906C22.1658 12.1379 21.3002 11.3576 20.2864 10.8187C19.2725 10.2797 18.1417 9.99853 16.9936 10ZM13.9948 10V10.685C13.2973 11.017 12.6591 11.4612 12.1055 12H4.99813V10H13.9948ZM4.99813 2H13.9948V4H4.99813V2ZM1.99925 8V6H10.9959V8H1.99925ZM1.99925 16V14H10.681C10.3795 14.6322 10.1756 15.3066 10.0762 16H1.99925ZM4.99813 18H10.0762C10.1756 18.6934 10.3795 19.3678 10.681 20H4.99813V18ZM16.9936 22C16.0051 22 15.0388 21.7068 14.2168 21.1574C13.3949 20.6079 12.7543 19.8271 12.376 18.9134C11.9977 17.9998 11.8987 16.9945 12.0916 16.0246C12.2844 15.0546 12.7604 14.1637 13.4594 13.4645C14.1584 12.7652 15.049 12.289 16.0186 12.0961C16.9881 11.9031 17.9931 12.0022 18.9063 12.3806C19.8196 12.759 20.6002 13.3999 21.1494 14.2222C21.6986 15.0444 21.9918 16.0111 21.9918 17C21.9918 18.3261 21.4652 19.5979 20.5279 20.5355C19.5905 21.4732 18.3192 22 16.9936 22Z" fill="#9E9E9E"/>
</svg>
