<svg width="24" height="24" viewBox="0 0 24 24" fill="none" xmlns="http://www.w3.org/2000/svg">
<path fill-rule="evenodd" clip-rule="evenodd" d="M14.2929 9.70711C14.1054 9.51957 14 9.26522 14 9V1C14 0.734784 14.1054 0.48043 14.2929 0.292893C14.4804 0.105357 14.7348 0 15 0C17.3869 0 19.6761 0.948212 21.364 2.63604C23.0518 4.32387 24 6.61305 24 9C24 9.26522 23.8946 9.51957 23.7071 9.70711C23.5196 9.89464 23.2652 10 23 10H15C14.7348 10 14.4804 9.89464 14.2929 9.70711ZM19.9491 4.05087C18.8808 2.9825 17.4954 2.28848 16 2.0725V8H21.9275C21.7115 6.50461 21.0175 5.11924 19.9491 4.05087ZM18.7745 20.7745C16.7123 22.8367 13.9164 23.9967 11 24C8.08262 24 5.28473 22.8411 3.22183 20.7782C1.15893 18.7153 0 15.9174 0 13C0 10.0826 1.15893 7.28473 3.22183 5.22183C5.28473 3.15893 8.08262 2 11 2C11.2652 2 11.5196 2.10536 11.7071 2.29289C11.8946 2.48043 12 2.73478 12 3V12H21C21.2652 12 21.5196 12.1054 21.7071 12.2929C21.8946 12.4804 22 12.7348 22 13C21.9967 15.9164 20.8367 18.7123 18.7745 20.7745ZM18.1914 18.403C19.1588 17.1183 19.7643 15.598 19.945 14H11.415L5.39 20.025C6.64722 21.0278 8.15016 21.6754 9.74249 21.9004C11.3348 22.1254 12.9584 21.9197 14.4442 21.3047C15.9301 20.6896 17.224 19.6876 18.1914 18.403ZM10 12.585V4.055C8.40203 4.23565 6.88165 4.84117 5.59702 5.80857C4.31238 6.77596 3.31041 8.0699 2.69534 9.55577C2.08026 11.0416 1.87455 12.6652 2.0996 14.2575C2.32465 15.8498 2.97224 17.3528 3.975 18.61L10 12.585Z" fill="#36B37E"/>
</svg>
