<svg width="24" height="24" viewBox="0 0 24 24" fill="none" xmlns="http://www.w3.org/2000/svg">
<path d="M15 11C16.8565 11 18.637 10.2625 19.9497 8.94975C21.2625 7.63699 22 5.85652 22 4C22 3.73478 21.8946 3.48043 21.7071 3.29289C21.5196 3.10536 21.2652 3 21 3H18C17.0163 3.00083 16.0439 3.20949 15.1465 3.61232C14.2491 4.01515 13.4469 4.60305 12.7925 5.3375C12.4206 3.81622 11.5492 2.4636 10.3178 1.49598C9.08641 0.528353 7.56609 0.0016139 6 0H3C2.73478 0 2.48043 0.105357 2.29289 0.292893C2.10536 0.48043 2 0.734784 2 1C2 2.85652 2.7375 4.63699 4.05025 5.94975C5.36301 7.2625 7.14348 8 9 8H11V14H4C3.73478 14 3.48043 14.1054 3.29289 14.2929C3.10536 14.4804 3 14.7348 3 15C3 15.2652 3.10536 15.5196 3.29289 15.7071C3.48043 15.8946 3.73478 16 4 16H5V20C5 21.0609 5.42143 22.0783 6.17157 22.8284C6.92172 23.5786 7.93913 24 9 24H15C16.0609 24 17.0783 23.5786 17.8284 22.8284C18.5786 22.0783 19 21.0609 19 20V16H20C20.2652 16 20.5196 15.8946 20.7071 15.7071C20.8946 15.5196 21 15.2652 21 15C21 14.7348 20.8946 14.4804 20.7071 14.2929C20.5196 14.1054 20.2652 14 20 14H13V11H15ZM18 5H19.9C19.6695 6.12936 19.0558 7.1444 18.1629 7.87331C17.27 8.60222 16.1527 9.00024 15 9H13.1C13.3305 7.87064 13.9442 6.8556 14.8371 6.12669C15.73 5.39778 16.8473 4.99976 18 5ZM9 6C7.84735 6.00024 6.73001 5.60222 5.8371 4.87331C4.94418 4.1444 4.33053 3.12936 4.1 2H6C7.15265 1.99976 8.26999 2.39778 9.1629 3.12669C10.0558 3.8556 10.6695 4.87064 10.9 6H9ZM17 20C17 20.5304 16.7893 21.0391 16.4142 21.4142C16.0391 21.7893 15.5304 22 15 22H9C8.46957 22 7.96086 21.7893 7.58579 21.4142C7.21071 21.0391 7 20.5304 7 20V16H17V20Z" fill="#9E9E9E"/>
</svg>
