<svg width="24" height="24" viewBox="0 0 24 24" fill="none" xmlns="http://www.w3.org/2000/svg">
<g clip-path="url(#clip0)">
<path d="M23.6302 10.2252L12.6305 1.22543C12.452 1.07964 12.2286 1 11.998 1C11.7675 1 11.5441 1.07964 11.3656 1.22543L0.365877 10.2252C0.264106 10.3082 0.17969 10.4105 0.117451 10.5262C0.0552112 10.6419 0.0163665 10.7687 0.00313457 10.8994C-0.0100974 11.0301 0.00254239 11.1621 0.0403324 11.2879C0.0781223 11.4137 0.140322 11.5309 0.223381 11.6326C0.30644 11.7344 0.408731 11.8188 0.524413 11.8811C0.640096 11.9433 0.766905 11.9821 0.897599 11.9954C1.02829 12.0086 1.16032 11.996 1.28612 11.9582C1.41193 11.9204 1.52907 11.8582 1.63084 11.7751L2.9983 10.6552V19.9999C2.9983 20.7955 3.31436 21.5586 3.87696 22.1212C4.43955 22.6838 5.20259 22.9998 5.99822 22.9998H17.9979C18.7935 22.9998 19.5565 22.6838 20.1191 22.1212C20.6817 21.5586 20.9978 20.7955 20.9978 19.9999V10.6552L22.3653 11.7751C22.467 11.8582 22.5842 11.9204 22.71 11.9582C22.8358 11.996 22.9678 12.0086 23.0985 11.9954C23.2292 11.9821 23.356 11.9433 23.4717 11.8811C23.5874 11.8188 23.6897 11.7344 23.7727 11.6326C23.8558 11.5309 23.918 11.4137 23.9558 11.2879C23.9936 11.1621 24.0062 11.0301 23.993 10.8994C23.9797 10.7687 23.9409 10.6419 23.8786 10.5262C23.8164 10.4105 23.732 10.3082 23.6302 10.2252ZM9.9981 20.9999V16C9.9981 15.7348 10.1035 15.4805 10.291 15.2929C10.4785 15.1054 10.7329 15 10.9981 15H12.998C13.2632 15 13.5176 15.1054 13.7051 15.2929C13.8926 15.4805 13.998 15.7348 13.998 16V20.9999H9.9981ZM18.9978 19.9999C18.9978 20.2651 18.8925 20.5195 18.705 20.707C18.5174 20.8945 18.2631 20.9999 17.9979 20.9999H15.9979V16C15.9979 15.2044 15.6819 14.4413 15.1193 13.8788C14.5567 13.3162 13.7936 13.0001 12.998 13.0001H10.9981C10.2024 13.0001 9.43941 13.3162 8.87681 13.8788C8.31422 14.4413 7.99816 15.2044 7.99816 16V20.9999H5.99822C5.73301 20.9999 5.47866 20.8945 5.29113 20.707C5.1036 20.5195 4.99825 20.2651 4.99825 19.9999V9.02021L11.998 3.29287L18.9978 9.02021V19.9999Z" fill="#9E9E9E"/>
</g>
<defs>
<clipPath id="clip0">
<rect width="24" height="24" fill="white"/>
</clipPath>
</defs>
</svg>
