<svg width="24" height="24" viewBox="0 0 24 24" fill="none" xmlns="http://www.w3.org/2000/svg">
<path fill-rule="evenodd" clip-rule="evenodd" d="M19.7429 18.3288C21.1536 16.6049 22 14.4013 22 12C22 9.59878 21.1537 7.39524 19.743 5.67139L16.8908 8.52359C17.5892 9.50439 18 10.7042 18 12C18 13.2958 17.5892 14.4957 16.8907 15.4766L19.7429 18.3288ZM18.3287 19.743L15.4765 16.8908C14.4957 17.5892 13.2958 18 12 18C10.7042 18 9.50439 17.5892 8.52359 16.8908L5.67138 19.743C7.39524 21.1537 9.59878 22 12 22C14.4013 22 16.6048 21.1536 18.3287 19.743ZM4.25715 18.3288C2.8464 16.605 2 14.4013 2 12C2 9.59875 2.84635 7.39517 4.25703 5.6713L7.10923 8.5235C6.41078 9.50431 6 10.7042 6 12C6 13.2959 6.41083 14.4958 7.10934 15.4767L4.25715 18.3288ZM8.52343 7.10928C9.50426 6.4108 10.7042 6 12 6C13.2959 6 14.4958 6.41082 15.4767 7.10934L18.3288 4.25715C16.605 2.8464 14.4013 2 12 2C9.59871 2 7.39511 2.84638 5.67123 4.25708L8.52343 7.10928ZM12 24C18.6274 24 24 18.6274 24 12C24 5.37258 18.6274 0 12 0C5.37258 0 0 5.37258 0 12C0 18.6274 5.37258 24 12 24ZM12 16C14.2091 16 16 14.2091 16 12C16 9.79086 14.2091 8 12 8C9.79086 8 8 9.79086 8 12C8 14.2091 9.79086 16 12 16Z" fill="#9E9E9E"/>
</svg>
