<svg width="146" height="32" viewBox="0 0 146 32" fill="none" xmlns="http://www.w3.org/2000/svg">
<mask id="mask0" mask-type="alpha" maskUnits="userSpaceOnUse" x="0" y="0" width="40" height="32">
<path d="M2.71077 0.99065L19.5822 10.7239L36.453 0.99071C37.658 0.295506 39.1638 1.16519 39.1638 2.55637V30.1884C39.1638 31.5796 37.658 32.4493 36.453 31.754L19.5824 22.0208L19.5822 22.0209V22.0207L19.5819 22.0205L19.5816 22.0207V22.0209L19.5814 22.0208L2.71081 31.754C1.50579 32.4493 0 31.5796 0 30.1884V2.55632C0 1.16515 1.50575 0.295467 2.71077 0.99065Z" fill="#C4C4C4"/>
</mask>
<g mask="url(#mask0)">
<path d="M19.5819 22.0195L9.79075 16.3711L0 22.02V33.317L19.5819 22.0195Z" fill="white" fill-opacity="0.2"/>
<path d="M9.79094 16.3708L0 22.0197V10.7227L9.79094 16.3708Z" fill="white" fill-opacity="0.6"/>
<path d="M19.5816 10.7229L0 -0.574219V10.7229L9.79139 16.3714L19.5816 10.7229Z" fill="white"/>
<path d="M19.582 22.0195L29.3732 16.3711L39.1639 22.02V33.317L19.582 22.0195Z" fill="white" fill-opacity="0.2"/>
<path d="M29.373 16.3708L39.164 22.0197V10.7227L29.373 16.3708Z" fill="white" fill-opacity="0.6"/>
<path d="M19.582 10.7229L39.1636 -0.574219V10.7229L29.3721 16.3714L19.582 10.7232V10.7229Z" fill="white"/>
<path d="M19.5813 10.7227L29.3719 16.3711L19.5815 22.0192L9.79102 16.3711L19.5813 10.7227Z" fill="white" fill-opacity="0.6"/>
</g>
<path d="M57.7002 29.5412V8.74682H63.8477V11.3461C64.2328 10.4384 64.9205 9.70952 65.9107 9.15941C66.9009 8.58179 68.0148 8.29298 69.2526 8.29298C70.6279 8.29298 71.7969 8.58179 72.7596 9.15941C73.7223 9.70952 74.4374 10.5209 74.905 11.5937C76.0603 9.39321 78.3708 8.29298 81.8365 8.29298C84.1745 8.29298 85.9898 9.06314 87.2826 10.6035C88.5754 12.1163 89.2218 14.2205 89.2218 16.916V29.5412H83.0742V17.6587C83.0742 16.7785 82.923 16.0221 82.6204 15.3895C82.3178 14.7568 81.919 14.3305 81.4239 14.1104C80.9288 13.8629 80.4474 13.7391 79.9798 13.7391C78.9896 13.7391 78.1645 14.1379 77.5043 14.9356C76.8442 15.7058 76.5141 16.6822 76.5141 17.865V29.5412H70.3666V17.6587C70.3666 16.7785 70.2153 16.0221 69.9127 15.3895C69.6102 14.7568 69.2113 14.3305 68.7162 14.1104C68.2211 13.8629 67.7398 13.7391 67.2722 13.7391C66.8046 13.7391 66.2957 13.8766 65.7456 14.1517C65.223 14.3993 64.7692 14.8668 64.3841 15.5545C64.0265 16.2146 63.8477 16.9848 63.8477 17.865V29.5412H57.7002Z" fill="white"/>
<path d="M97.8603 6.9727C96.9251 6.9727 96.0999 6.62888 95.3848 5.94124C94.6971 5.2536 94.3533 4.44218 94.3533 3.50698C94.3533 2.54428 94.6971 1.71911 95.3848 1.03146C96.0999 0.343821 96.9251 0 97.8603 0C98.823 0 99.6482 0.343821 100.336 1.03146C101.023 1.71911 101.367 2.54428 101.367 3.50698C101.367 3.94707 101.243 4.44218 100.996 4.99229C100.776 5.54241 100.363 6.01 99.7582 6.39508C99.1806 6.78016 98.5479 6.9727 97.8603 6.9727ZM94.8072 29.5412V8.74682H100.955V29.5412H94.8072Z" fill="white"/>
<path d="M106.732 29.5412V8.74682H112.879V11.5937C113.347 10.5484 114.117 9.73703 115.19 9.15941C116.263 8.58179 117.5 8.29298 118.903 8.29298C119.316 8.29298 119.852 8.33424 120.512 8.41675V14.193C119.88 14.0554 119.192 13.9867 118.449 13.9867C116.716 13.9867 115.355 14.468 114.365 15.4307C113.374 16.3934 112.879 17.7137 112.879 19.3915V29.5412H106.732Z" fill="white"/>
<path d="M123.309 19.144C123.309 17.6862 123.57 16.2971 124.093 14.9769C124.616 13.6566 125.345 12.5014 126.28 11.5111C127.215 10.5209 128.315 9.75078 129.58 9.20067C130.846 8.65055 132.193 8.3755 133.624 8.3755C134.366 8.3755 135.178 8.47177 136.058 8.6643C136.938 8.85685 137.722 9.21442 138.41 9.73703C139.125 10.2321 139.592 10.8098 139.813 11.4699V8.74682H145.96V29.5412H139.813V26.8181C139.51 27.6983 138.781 28.4409 137.626 29.0461C136.498 29.6237 135.164 29.9125 133.624 29.9125C132.193 29.9125 130.846 29.6374 129.58 29.0873C128.315 28.5372 127.215 27.767 126.28 26.7768C125.345 25.7866 124.616 24.6314 124.093 23.3111C123.57 21.9908 123.309 20.6018 123.309 19.144ZM129.457 19.144C129.457 20.6018 129.965 21.8396 130.983 22.8573C132.001 23.8475 133.252 24.3426 134.738 24.3426C135.425 24.3426 136.196 24.1775 137.048 23.8475C137.901 23.4899 138.63 22.8848 139.235 22.0321C139.868 21.1519 140.184 20.1892 140.184 19.144C140.184 18.0988 139.868 17.1498 139.235 16.2971C138.63 15.417 137.901 14.8118 137.048 14.4818C136.196 14.1242 135.425 13.9454 134.738 13.9454C133.252 13.9454 132.001 14.4543 130.983 15.472C129.965 16.4622 129.457 17.6862 129.457 19.144Z" fill="white"/>
</svg>
