<svg width="24" height="24" viewBox="0 0 24 24" fill="none" xmlns="http://www.w3.org/2000/svg">
<g clip-path="url(#clip0)">
<path fill-rule="evenodd" clip-rule="evenodd" d="M1 2H1.94C2.34445 1.99987 2.73944 2.12237 3.07285 2.35134C3.40625 2.5803 3.6624 2.90497 3.8075 3.2825L7.5575 13.045C6.82346 13.1724 6.16307 13.5683 5.70487 14.1558C5.24668 14.7432 5.02346 15.4802 5.07867 16.2231C5.13388 16.9661 5.46356 17.6619 6.00355 18.1752C6.54353 18.6885 7.25519 18.9825 8 19H20C20.2652 19 20.5196 18.8946 20.7071 18.7071C20.8946 18.5196 21 18.2652 21 18C21 17.7348 20.8946 17.4804 20.7071 17.2929C20.5196 17.1054 20.2652 17 20 17H8C7.73478 17 7.48043 16.8946 7.29289 16.7071C7.10536 16.5196 7 16.2652 7 16C7 15.7348 7.10536 15.4804 7.29289 15.2929C7.48043 15.1054 7.73478 15 8 15H17.1175C18.1682 15.0013 19.1926 14.6716 20.0452 14.0577C20.8979 13.4438 21.5355 12.5768 21.8675 11.58L23.95 5.315C23.9999 5.16465 24.0134 5.00459 23.9893 4.84801C23.9652 4.69143 23.9043 4.54281 23.8115 4.4144C23.7187 4.28598 23.5968 4.18145 23.4557 4.1094C23.3146 4.03735 23.1584 3.99986 23 4H6.225L5.6725 2.565C5.37982 1.81212 4.86725 1.16479 4.20153 0.707303C3.5358 0.249812 2.74776 0.00334821 1.94 0H1C0.734784 0 0.48043 0.105357 0.292893 0.292893C0.105357 0.48043 0 0.734784 0 1C0 1.26522 0.105357 1.51957 0.292893 1.70711C0.48043 1.89464 0.734784 2 1 2ZM21.6125 6L19.9625 10.9475C19.7636 11.5449 19.3819 12.0646 18.8713 12.4329C18.3607 12.8013 17.7471 12.9997 17.1175 13H9.6875L7 6H21.6125ZM9.5 24C10.3284 24 11 23.3284 11 22.5C11 21.6716 10.3284 21 9.5 21C8.67157 21 8 21.6716 8 22.5C8 23.3284 8.67157 24 9.5 24ZM18 22.5C18 23.3284 17.3284 24 16.5 24C15.6716 24 15 23.3284 15 22.5C15 21.6716 15.6716 21 16.5 21C17.3284 21 18 21.6716 18 22.5Z" fill="#9E9E9E"/>
</g>
<defs>
<clipPath id="clip0">
<rect width="24" height="24" fill="white"/>
</clipPath>
</defs>
</svg>
