<svg width="24" height="24" viewBox="0 0 24 24" fill="none" xmlns="http://www.w3.org/2000/svg">
<path fill-rule="evenodd" clip-rule="evenodd" d="M9 1V3C9 3.26522 8.89464 3.51957 8.70711 3.70711C8.51957 3.89464 8.26522 4 8 4C7.73478 4 7.48043 3.89464 7.29289 3.70711C7.10536 3.51957 7 3.26522 7 3V1C7 0.734784 7.10536 0.48043 7.29289 0.292893C7.48043 0.105357 7.73478 0 8 0C8.26522 0 8.51957 0.105357 8.70711 0.292893C8.89464 0.48043 9 0.734784 9 1ZM3 9H1C0.734784 9 0.48043 8.89464 0.292893 8.70711C0.105357 8.51957 0 8.26522 0 8C0 7.73478 0.105357 7.48043 0.292893 7.29289C0.48043 7.10536 0.734784 7 1 7H3C3.26522 7 3.51957 7.10536 3.70711 7.29289C3.89464 7.48043 4 7.73478 4 8C4 8.26522 3.89464 8.51957 3.70711 8.70711C3.51957 8.89464 3.26522 9 3 9ZM4.70751 3.29251L3.70751 2.29251C3.6146 2.1996 3.5043 2.1259 3.3829 2.07561C3.26151 2.02533 3.1314 1.99945 3.00001 1.99945C2.86861 1.99945 2.7385 2.02533 2.61711 2.07561C2.49572 2.1259 2.38542 2.1996 2.29251 2.29251C2.10487 2.48015 1.99945 2.73464 1.99945 3.00001C1.99945 3.26537 2.10487 3.51987 2.29251 3.70751L3.29251 4.70751C3.38542 4.80042 3.49572 4.87412 3.61711 4.9244C3.7385 4.97468 3.86861 5.00056 4.00001 5.00056C4.1314 5.00056 4.26151 4.97468 4.3829 4.9244C4.5043 4.87412 4.6146 4.80042 4.70751 4.70751C4.80042 4.6146 4.87412 4.5043 4.9244 4.3829C4.97468 4.26151 5.00056 4.1314 5.00056 4.00001C5.00056 3.86861 4.97468 3.7385 4.9244 3.61711C4.87412 3.49572 4.80042 3.38542 4.70751 3.29251ZM16.7071 23.7071C16.5196 23.8946 16.2652 24 16 24C15.7348 24 15.4804 23.8946 15.2929 23.7071C15.1054 23.5196 15 23.2652 15 23V21C15 20.7348 15.1054 20.4804 15.2929 20.2929C15.4804 20.1054 15.7348 20 16 20C16.2652 20 16.5196 20.1054 16.7071 20.2929C16.8946 20.4804 17 20.7348 17 21V23C17 23.2652 16.8946 23.5196 16.7071 23.7071ZM24 16C24 15.7348 23.8946 15.4804 23.7071 15.2929C23.5196 15.1054 23.2652 15 23 15H21C20.7348 15 20.4804 15.1054 20.2929 15.2929C20.1054 15.4804 20 15.7348 20 16C20 16.2652 20.1054 16.5196 20.2929 16.7071C20.4804 16.8946 20.7348 17 21 17H23C23.2652 17 23.5196 16.8946 23.7071 16.7071C23.8946 16.5196 24 16.2652 24 16ZM20.6171 21.9244C20.4957 21.8741 20.3854 21.8004 20.2925 21.7075L19.2925 20.7075C19.1049 20.5199 18.9995 20.2654 18.9995 20C18.9995 19.7346 19.1049 19.4801 19.2925 19.2925C19.4801 19.1049 19.7346 18.9995 20 18.9995C20.2654 18.9995 20.5199 19.1049 20.7075 19.2925L21.7075 20.2925C21.8004 20.3854 21.8741 20.4957 21.9244 20.6171C21.9747 20.7385 22.0006 20.8686 22.0006 21C22.0006 21.1314 21.9747 21.2615 21.9244 21.3829C21.8741 21.5043 21.8004 21.6146 21.7075 21.7075C21.6146 21.8004 21.5043 21.8741 21.3829 21.9244C21.2615 21.9747 21.1314 22.0006 21 22.0006C20.8686 22.0006 20.7385 21.9747 20.6171 21.9244ZM0.999994 17.05C1.00139 18.2262 1.35138 19.3756 2.00574 20.353C2.66009 21.3304 3.58946 22.092 4.67643 22.5414C5.7634 22.9909 6.95919 23.1081 8.11274 22.8782C9.26628 22.6484 10.3258 22.0818 11.1575 21.25L14.25 18.1575C15.3637 17.0419 15.9892 15.5301 15.9892 13.9537C15.9892 12.3774 15.3637 10.8655 14.25 9.75C14.0624 9.56236 13.8079 9.45694 13.5425 9.45694C13.2771 9.45694 13.0226 9.56236 12.835 9.75C12.6474 9.93764 12.5419 10.1921 12.5419 10.4575C12.5419 10.7229 12.6474 10.9774 12.835 11.165C13.2019 11.5316 13.493 11.9669 13.6916 12.4461C13.8902 12.9252 13.9924 13.4388 13.9924 13.9575C13.9924 14.4762 13.8902 14.9898 13.6916 15.4689C13.493 15.9481 13.2019 16.3834 12.835 16.75L9.74999 19.8425C9.38359 20.2118 8.94726 20.5043 8.46651 20.7031C7.98575 20.9018 7.4702 21.0028 6.94999 21C5.90279 20.9987 4.89887 20.5821 4.15838 19.8416C3.4179 19.1011 3.00132 18.0972 2.99999 17.05C2.99723 16.5298 3.09816 16.0142 3.2969 15.5335C3.49564 15.0527 3.78821 14.6164 4.15749 14.25L5.70749 12.7C5.89513 12.5124 6.00055 12.2579 6.00055 11.9925C6.00055 11.7271 5.89513 11.4726 5.70749 11.285C5.51985 11.0974 5.26536 10.9919 4.99999 10.9919C4.73463 10.9919 4.48013 11.0974 4.29249 11.285L2.74999 12.8425C2.19425 13.393 1.75338 14.0484 1.45297 14.7707C1.15256 15.493 0.998588 16.2677 0.999994 17.05ZM17.9994 12C17.9994 11.7346 18.1049 11.4801 18.2925 11.2925L19.8425 9.75C20.2118 9.3836 20.5044 8.94727 20.7031 8.46652C20.9018 7.98576 21.0028 7.47021 21 6.95C20.9987 5.9028 20.5821 4.89888 19.8416 4.15839C19.1011 3.41791 18.0972 3.00133 17.05 3C16.5298 2.99723 16.0142 3.09817 15.5335 3.29691C15.0527 3.49565 14.6164 3.78821 14.25 4.1575L11.165 7.25C10.7981 7.61661 10.507 8.05193 10.3084 8.53108C10.1098 9.01023 10.0076 9.52383 10.0076 10.0425C10.0076 10.5612 10.1098 11.0748 10.3084 11.5539C10.507 12.0331 10.7981 12.4684 11.165 12.835C11.3526 13.0226 11.4581 13.2771 11.4581 13.5425C11.4581 13.8079 11.3526 14.0624 11.165 14.25C10.9774 14.4376 10.7229 14.5431 10.4575 14.5431C10.1921 14.5431 9.93764 14.4376 9.75 14.25C8.63632 13.1345 8.01082 11.6226 8.01082 10.0463C8.01082 8.46995 8.63632 6.95806 9.75 5.8425L12.8425 2.75C13.9677 1.68532 15.4638 1.10146 17.0128 1.12253C18.5618 1.1436 20.0414 1.76793 21.1373 2.86282C22.2332 3.95771 22.8588 5.43682 22.8813 6.98576C22.9037 8.53469 22.3212 10.0313 21.2575 11.1575L19.7075 12.7075C19.5199 12.8951 19.2654 13.0006 19 13.0006C18.7346 13.0006 18.4801 12.8951 18.2925 12.7075C18.1049 12.5199 17.9994 12.2654 17.9994 12Z" fill="#9E9E9E"/>
</svg>
