<svg width="24" height="24" viewBox="0 0 24 24" fill="none" xmlns="http://www.w3.org/2000/svg">
<path fill-rule="evenodd" clip-rule="evenodd" d="M1.82137 18.3725L1.38637 17.6225C1.04782 17.0397 0.930219 16.3546 1.05507 15.6922C1.17991 15.0299 1.53887 14.4346 2.06637 14.015L3.06637 13.205C2.95967 12.4103 2.95967 11.6048 3.06637 10.81L2.06637 10C1.53472 9.579 1.17311 8.98002 1.04816 8.31344C0.923202 7.64687 1.04332 6.95759 1.38637 6.37257L1.82137 5.62257C2.15692 5.03648 2.69217 4.5907 3.32928 4.3667C3.9664 4.1427 4.66285 4.15544 5.29135 4.40258L6.50885 4.87757C7.13961 4.38784 7.83331 3.98507 8.57134 3.68008L8.76884 2.39509C8.8691 1.72707 9.20645 1.11746 9.71919 0.677704C10.2319 0.237946 10.8858 -0.00258017 11.5613 9.94911e-05H12.4313C13.109 -0.00559778 13.7659 0.233562 14.2812 0.673593C14.7966 1.11362 15.1357 1.72493 15.2363 2.39509L15.4338 3.68008C16.1718 3.98507 16.8655 4.38784 17.4963 4.87757L18.7013 4.40508C19.3298 4.15847 20.0261 4.14601 20.6631 4.36996C21.3001 4.59391 21.8353 5.03936 22.1713 5.62507L22.6063 6.37507C22.9445 6.95838 23.0619 7.64379 22.937 8.30641C22.8122 8.96903 22.4535 9.56475 21.9263 9.98505L20.9263 10.795C21.033 11.5898 21.033 12.3953 20.9263 13.19L21.9263 14C22.4582 14.4203 22.82 15.0189 22.945 15.6852C23.07 16.3515 22.9497 17.0405 22.6063 17.625L22.1713 18.375C21.8369 18.959 21.3039 19.4037 20.6694 19.628C20.0349 19.8524 19.341 19.8415 18.7138 19.5975L17.4963 19.1225C16.8617 19.6132 16.1637 20.016 15.4213 20.32L15.2238 21.605C15.1235 22.273 14.7862 22.8826 14.2734 23.3224C13.7607 23.7621 13.1068 24.0027 12.4313 24H11.5613C10.8856 24.003 10.2315 23.7622 9.71897 23.3218C9.20647 22.8814 8.87001 22.271 8.77133 21.6025L8.57134 20.3175C7.83331 20.0125 7.13961 19.6097 6.50885 19.12L5.29135 19.595C4.66262 19.8425 3.96577 19.8551 3.32848 19.6306C2.6912 19.4061 2.15615 18.9594 1.82137 18.3725ZM4.78386 14.39L3.31636 15.5675C3.16088 15.6905 3.0552 15.8656 3.01889 16.0605C2.98258 16.2554 3.0181 16.4568 3.11886 16.6275L3.55386 17.3775C3.65105 17.5493 3.80709 17.6801 3.99319 17.7458C4.17928 17.8115 4.38287 17.8077 4.56636 17.735L6.33135 17.05C6.44653 17.0035 6.56963 16.9797 6.69385 16.98C6.93778 16.9797 7.17339 17.0687 7.35634 17.23C8.06184 17.86 8.8888 18.339 9.78633 18.6375C9.96096 18.6957 10.1162 18.8009 10.2348 18.9416C10.3535 19.0823 10.431 19.253 10.4588 19.435L10.7463 21.3C10.7752 21.4952 10.8735 21.6735 11.0232 21.802C11.1729 21.9306 11.364 22.0009 11.5613 22H12.4313C12.6287 22.0009 12.8197 21.9306 12.9694 21.802C13.1191 21.6735 13.2174 21.4952 13.2463 21.3L13.5338 19.43C13.5617 19.2481 13.6392 19.0773 13.7578 18.9366C13.8765 18.7959 14.0317 18.6907 14.2063 18.6325C15.1034 18.3331 15.9302 17.8542 16.6363 17.225C16.7739 17.1034 16.9424 17.022 17.1232 16.9898C17.304 16.9577 17.4902 16.9759 17.6613 17.0425L19.4263 17.7275C19.6082 17.7967 19.8089 17.7988 19.9922 17.7332C20.1755 17.6677 20.3295 17.5389 20.4263 17.37L20.8613 16.62C20.9606 16.4498 20.9954 16.2495 20.9591 16.0557C20.9228 15.862 20.818 15.6878 20.6638 15.565L19.1963 14.3875C19.0527 14.2726 18.9436 14.1203 18.881 13.9474C18.8184 13.7745 18.8046 13.5877 18.8413 13.4075C19.0313 12.4771 19.0313 11.5179 18.8413 10.5875C18.8046 10.4073 18.8184 10.2205 18.881 10.0476C18.9436 9.87474 19.0527 9.72247 19.1963 9.60755L20.6638 8.43005C20.8182 8.30688 20.9231 8.13224 20.9594 7.93807C20.9956 7.7439 20.9608 7.54317 20.8613 7.37256L20.4263 6.62256C20.3291 6.45411 20.175 6.32583 19.9917 6.26077C19.8084 6.1957 19.6079 6.19811 19.4263 6.26757L17.6613 6.95256C17.4902 7.0192 17.304 7.03742 17.1232 7.00522C16.9424 6.97303 16.7739 6.89167 16.6363 6.77006C15.9308 6.14004 15.1038 5.66105 14.2063 5.36257C14.0317 5.30441 13.8765 5.19918 13.7578 5.05846C13.6392 4.91775 13.5617 4.74702 13.5338 4.56508L13.2463 2.70009C13.2174 2.50487 13.1191 2.32661 12.9694 2.19803C12.8197 2.06945 12.6287 1.99917 12.4313 2.00009H11.5613C11.364 1.99917 11.1729 2.06945 11.0232 2.19803C10.8735 2.32661 10.7752 2.50487 10.7463 2.70009L10.4588 4.56758C10.431 4.74952 10.3535 4.92025 10.2348 5.06096C10.1162 5.20168 9.96096 5.30691 9.78633 5.36507C8.8888 5.66355 8.06184 6.14254 7.35634 6.77256C7.21872 6.89417 7.05027 6.97553 6.86947 7.00772C6.68866 7.03992 6.50248 7.0217 6.33135 6.95506L4.56636 6.27007C4.38315 6.19719 4.17978 6.19299 3.99372 6.25822C3.80766 6.32346 3.65145 6.45374 3.55386 6.62506L3.11886 7.37506C3.01932 7.54567 2.98449 7.7464 3.02076 7.94057C3.05702 8.13474 3.16195 8.30938 3.31636 8.43255L4.78386 9.61005C4.92741 9.72497 5.0365 9.87724 5.09913 10.0501C5.16176 10.223 5.17551 10.4098 5.13885 10.59C4.94887 11.5204 4.94887 12.4796 5.13885 13.41C5.17551 13.5902 5.16176 13.777 5.09913 13.9499C5.0365 14.1228 4.92741 14.2751 4.78386 14.39ZM14.2185 15.3259C13.5608 15.7654 12.7874 16 11.9963 16C10.9354 16 9.91801 15.5786 9.16787 14.8285C8.41773 14.0783 7.9963 13.0609 7.9963 12C7.9963 11.2089 8.2309 10.4356 8.67042 9.77778C9.10994 9.11998 9.73465 8.6073 10.4656 8.30455C11.1965 8.0018 12.0007 7.92258 12.7766 8.07692C13.5526 8.23126 14.2653 8.61223 14.8247 9.17163C15.3841 9.73104 15.7651 10.4438 15.9194 11.2197C16.0737 11.9956 15.9945 12.7999 15.6918 13.5308C15.389 14.2617 14.8763 14.8864 14.2185 15.3259ZM13.1074 10.3371C12.7785 10.1174 12.3918 10.0001 11.9963 10.0001C11.4658 10.0001 10.9571 10.2108 10.5821 10.5858C10.207 10.9609 9.99629 11.4696 9.99629 12C9.99629 12.3956 10.1136 12.7823 10.3333 13.1112C10.5531 13.4401 10.8655 13.6964 11.2309 13.8478C11.5964 13.9992 11.9985 14.0388 12.3865 13.9616C12.7744 13.8844 13.1308 13.694 13.4105 13.4143C13.6902 13.1345 13.8807 12.7782 13.9578 12.3902C14.035 12.0023 13.9954 11.6001 13.844 11.2347C13.6927 10.8692 13.4363 10.5569 13.1074 10.3371Z" fill="#9E9E9E"/>
</svg>
