<svg width="18" height="18" viewBox="0 0 18 18" fill="none" xmlns="http://www.w3.org/2000/svg">
<path d="M12.6375 5.1375L13.7175 6.2175L10.0575 9.8775L7.58999 7.41C7.29749 7.1175 6.82499 7.1175 6.53249 7.41L2.03249 11.9175C1.73999 12.21 1.73999 12.6825 2.03249 12.975C2.32499 13.2675 2.79749 13.2675 3.08999 12.975L7.05749 9L9.52498 11.4675C9.81748 11.76 10.29 11.76 10.5825 11.4675L14.775 7.2825L15.855 8.3625C16.0875 8.595 16.4925 8.43 16.4925 8.1V4.875C16.5 4.665 16.335 4.5 16.125 4.5H12.9075C12.57 4.5 12.405 4.905 12.6375 5.1375Z" fill="white"/>
</svg>
