<svg width="24" height="24" viewBox="0 0 24 24" fill="none" xmlns="http://www.w3.org/2000/svg">
<g clip-path="url(#clip0)">
<path d="M2.9999 23.9961H19.9993C20.2645 23.9961 20.5189 23.8907 20.7064 23.7032C20.8939 23.5157 20.9993 23.2613 20.9993 22.9961V18.9963H22.9992C23.2644 18.9963 23.5188 18.8909 23.7063 18.7034C23.8938 18.5158 23.9992 18.2615 23.9992 17.9963V12.9965C23.9992 12.7313 23.8938 12.4769 23.7063 12.2894C23.5188 12.1018 23.2644 11.9965 22.9992 11.9965H20.9993V7.99663C20.9993 7.73142 20.8939 7.47708 20.7064 7.28955C20.5189 7.10202 20.2645 6.99666 19.9993 6.99666H18.9994V2.9968C18.9994 2.73159 18.894 2.47724 18.7065 2.28971C18.519 2.10218 18.2646 1.99683 17.9994 1.99683H11.1721L8.57221 0.17689C8.45856 0.097324 8.3296 0.0422775 8.19352 0.0152511C8.05744 -0.0117752 7.91723 -0.01019 7.7818 0.0199059C7.64637 0.0500018 7.51868 0.10795 7.40686 0.190065C7.29503 0.272181 7.20152 0.376667 7.13226 0.49688L6.27729 1.99683H3.49988C2.57166 1.99683 1.68145 2.36557 1.02509 3.02192C0.368737 3.67828 0 4.56849 0 5.49671C0 5.61171 0.0224993 5.7192 0.0324989 5.8292C0.0178637 5.88423 0.00700541 5.94019 0 5.9967V20.9962C0 21.7918 0.31606 22.5549 0.87865 23.1174C1.44124 23.68 2.20428 23.9961 2.9999 23.9961ZM21.9993 16.9963H17.4994C17.1016 16.9963 16.7201 16.8383 16.4388 16.557C16.1575 16.2757 15.9995 15.8942 15.9995 15.4964C15.9995 15.0986 16.1575 14.717 16.4388 14.4358C16.7201 14.1545 17.1016 13.9964 17.4994 13.9964H21.9993V16.9963ZM17.4994 11.9965C16.5712 11.9965 15.681 12.3652 15.0246 13.0216C14.3683 13.6779 13.9995 14.5682 13.9995 15.4964C13.9995 16.4246 14.3683 17.3148 15.0246 17.9712C15.681 18.6275 16.5712 18.9963 17.4994 18.9963H18.9994V21.9962H2.9999C2.73469 21.9962 2.48035 21.8908 2.29282 21.7033C2.10529 21.5157 1.99993 21.2614 1.99993 20.9962V8.64661C2.46741 8.87409 2.98 8.99369 3.49988 8.9966H18.9994V11.9965H17.4994ZM16.9994 3.99676V6.07669L14.0295 3.99676H16.9994ZM8.32472 2.44431L14.827 6.99666H5.72231L8.32472 2.44431ZM3.49988 3.99676H5.13483L3.42489 6.99666C3.02707 6.98672 2.64951 6.81915 2.37524 6.53082C2.10098 6.24249 1.95249 5.85703 1.96243 5.45921C1.97238 5.0614 2.13995 4.68383 2.42828 4.40957C2.7166 4.13531 3.10207 3.98682 3.49988 3.99676Z" fill="#9E9E9E"/>
</g>
<defs>
<clipPath id="clip0">
<rect width="24" height="24" fill="white"/>
</clipPath>
</defs>
</svg>
