<svg width="180" height="180" viewBox="0 0 180 180" fill="none" xmlns="http://www.w3.org/2000/svg">
<circle cx="90" cy="90" r="90" fill="#1B1B1B"/>
<path d="M92.4959 30.2098C90.3429 29.8461 88.1364 29.9563 86.0304 30.5325C83.9244 31.1088 81.9695 32.1374 80.3023 33.5464C78.635 34.9555 77.2955 36.7111 76.3772 38.6908C75.4589 40.6705 74.9838 42.8265 74.9853 45.0086V48.4208C69.0029 51.2565 63.9475 55.7289 60.4055 61.3193C56.8634 66.9097 54.9798 73.389 54.9731 80.0057V91.5923C54.9773 94.0701 54.0538 96.4599 52.3841 98.2917L43.3536 108.291C41.6678 110.157 40.5595 112.471 40.1628 114.953C39.7661 117.435 40.0981 119.979 41.1186 122.276C42.1391 124.574 43.8043 126.526 45.9125 127.898C48.0207 129.269 50.4816 130 52.9969 130.002H69.9822C69.9822 135.306 72.0906 140.392 75.8436 144.143C79.5966 147.893 84.6868 150 89.9943 150C95.3019 150 100.392 147.893 104.145 144.143C107.898 140.392 110.006 135.306 110.006 130.002H126.992C129.51 130.002 131.973 129.272 134.084 127.9C136.195 126.528 137.862 124.574 138.883 122.274C139.903 119.974 140.235 117.427 139.836 114.943C139.437 112.459 138.325 110.144 136.635 108.278L127.605 98.2792C125.938 96.4506 125.015 94.0658 125.016 91.5923V81.2556C125.046 74.4814 123.191 67.8321 119.656 62.0512C116.122 56.2703 111.049 51.5856 105.003 48.5208V45.546C105.051 41.9294 103.824 38.4112 101.537 35.6075C99.2508 32.8037 96.0502 30.893 92.4959 30.2098Z" fill="#272727"/>
<path d="M92.4959 30.2098C90.3429 29.8461 88.1364 29.9563 86.0304 30.5325C83.9244 31.1088 81.9695 32.1374 80.3023 33.5464C78.635 34.9555 77.2955 36.7111 76.3772 38.6908C75.4589 40.6705 74.9838 42.8265 74.9853 45.0086V48.4208C69.0029 51.2565 63.9475 55.7289 60.4055 61.3193C56.8634 66.9097 54.9798 73.389 54.9731 80.0057V91.5923C54.9773 94.0701 54.0538 96.4599 52.3841 98.2917L43.3536 108.291C41.6678 110.157 40.5595 112.471 40.1628 114.953C39.7661 117.435 40.0981 119.979 41.1186 122.276C42.1391 124.574 43.8043 126.526 45.9125 127.898C48.0207 129.269 50.4816 130 52.9969 130.002H69.9822C69.9822 135.306 72.0906 140.392 75.8436 144.143C79.5966 147.893 84.6868 150 89.9943 150C95.3019 150 100.392 147.893 104.145 144.143C107.898 140.392 110.006 135.306 110.006 130.002H126.992C129.51 130.002 131.973 129.272 134.084 127.9C136.195 126.528 137.862 124.574 138.883 122.274C139.903 119.974 140.235 117.427 139.836 114.943C139.437 112.459 138.325 110.144 136.635 108.278L127.605 98.2792C125.938 96.4506 125.015 94.0658 125.016 91.5923V81.2556C125.046 74.4814 123.191 67.8321 119.656 62.0512C116.122 56.2703 111.049 51.5856 105.003 48.5208V45.546C105.051 41.9294 103.824 38.4112 101.537 35.6075C99.2508 32.8037 96.0502 30.893 92.4959 30.2098ZM89.9943 140.001C87.3406 140.001 84.7955 138.947 82.919 137.072C81.0425 135.197 79.9883 132.654 79.9883 130.002H100C100 132.654 98.9462 135.197 97.0697 137.072C95.1932 138.947 92.6481 140.001 89.9943 140.001ZM115.009 81.2556V91.5923C115.009 96.5479 116.85 101.327 120.175 105.004L129.218 115.003C129.604 115.434 129.857 115.967 129.946 116.538C130.036 117.109 129.958 117.694 129.723 118.222C129.488 118.751 129.105 119.2 128.62 119.515C128.136 119.831 127.57 120 126.992 120.002H52.9969C52.4184 120 51.8528 119.831 51.3682 119.515C50.8836 119.2 50.5007 118.751 50.2655 118.222C50.0303 117.694 49.9528 117.109 50.0424 116.538C50.132 115.967 50.3849 115.434 50.7706 115.003L59.8136 105.004C63.1388 101.327 64.9796 96.5479 64.9792 91.5923V80.0057C64.9857 74.8424 66.5919 69.8077 69.5773 65.5934C72.5627 61.3792 76.7807 58.1921 81.6518 56.4701C82.6278 56.1263 83.473 55.4885 84.0711 54.6446C84.6692 53.8006 84.9907 52.7922 84.9913 51.758V45.0086C84.9913 43.6826 85.5184 42.4109 86.4567 41.4733C87.3949 40.5357 88.6675 40.009 89.9943 40.009C90.2878 40.0091 90.5807 40.0342 90.8699 40.084C92.0811 40.3819 93.1528 41.0876 93.9045 42.0824C94.6562 43.0771 95.0421 44.3003 94.9974 45.546V51.7955C94.9976 52.8164 95.3105 53.8128 95.8941 54.6507C96.4776 55.4886 97.3039 56.1279 98.2619 56.4826C108.118 60.1448 115.009 70.3315 115.009 81.2556Z" fill="#414141"/>
<path fill-rule="evenodd" clip-rule="evenodd" d="M83.999 84.8779C82.6339 87.3363 80.0113 89 77 89C73.9887 89 71.3661 87.3363 70.001 84.8779C70.0003 84.9186 70 84.9593 70 85C70 88.866 73.134 92 77 92C80.866 92 84 88.866 84 85C84 84.9593 83.9997 84.9186 83.999 84.8779Z" fill="#414141"/>
<path fill-rule="evenodd" clip-rule="evenodd" d="M109.999 84.878C108.634 87.3363 106.011 89.0001 103 89.0001C99.9887 89.0001 97.3661 87.3363 96.001 84.8779C96.0003 84.9186 96 84.9593 96 85.0001C96 88.866 99.134 92.0001 103 92.0001C106.866 92.0001 110 88.866 110 85.0001C110 84.9593 110 84.9186 109.999 84.878Z" fill="#414141"/>
<ellipse cx="90" cy="99" rx="4" ry="2" fill="#414141"/>
<path d="M151.968 48.9998C151.539 48.9998 151.193 48.8598 150.932 48.5798C150.689 48.2998 150.549 47.9825 150.512 47.6278C150.493 47.2545 150.596 46.9278 150.82 46.6478L164.512 29.7078H152.248C151.781 29.7078 151.427 29.5958 151.184 29.3718C150.96 29.1292 150.857 28.8305 150.876 28.4758C150.857 28.0838 150.988 27.7665 151.268 27.5238C151.548 27.2625 151.893 27.1318 152.304 27.1318H166.752C167.181 27.1318 167.527 27.2625 167.788 27.5238C168.049 27.7852 168.199 28.1025 168.236 28.4758C168.273 28.8305 168.171 29.1478 167.928 29.4278L154.18 46.4238H166.752C167.181 46.4238 167.527 46.5545 167.788 46.8158C168.049 47.0585 168.18 47.3478 168.18 47.6838C168.18 48.0945 168.049 48.4212 167.788 48.6638C167.527 48.8878 167.181 48.9998 166.752 48.9998H151.968Z" fill="#414141"/>
<path d="M147.729 68.9318C147.514 68.9318 147.342 68.8618 147.211 68.7218C147.09 68.5818 147.02 68.4232 147.001 68.2459C146.992 68.0593 147.043 67.896 147.155 67.756L154 59.2877H147.869C147.636 59.2877 147.458 59.2317 147.337 59.1198C147.225 58.9985 147.174 58.8492 147.183 58.6719C147.174 58.4759 147.239 58.3173 147.379 58.196C147.519 58.0653 147.692 58 147.897 58H155.119C155.334 58 155.507 58.0653 155.637 58.196C155.768 58.3266 155.843 58.4852 155.861 58.6719C155.88 58.8492 155.829 59.0078 155.707 59.1478L148.835 67.644H155.119C155.334 67.644 155.507 67.7094 155.637 67.84C155.768 67.9613 155.833 68.1059 155.833 68.2739C155.833 68.4792 155.768 68.6425 155.637 68.7638C155.507 68.8758 155.334 68.9318 155.119 68.9318H147.729Z" fill="#414141"/>
</svg>
