<svg width="120" height="96" viewBox="0 0 120 96" fill="none" xmlns="http://www.w3.org/2000/svg">
<mask id="mask0" mask-type="alpha" maskUnits="userSpaceOnUse" x="0" y="0" width="120" height="96">
<path d="M8.30596 0.876289L60.0009 30.6994L111.694 0.876472C115.386 -1.25367 120 1.41108 120 5.67374V90.3398C120 94.6025 115.386 97.2673 111.694 95.1371L60 65.3129L8.30608 95.1371C4.61383 97.2673 0 94.6025 0 90.3398V5.67359C0 1.41097 4.61371 -1.25379 8.30596 0.876289Z" fill="#C4C4C4"/>
</mask>
<g mask="url(#mask0)">
<path d="M89.9984 47.8775L59.9995 30.5703L0 65.1847V99.7996L59.9999 65.1835L89.9984 47.8775Z" fill="#0A5554"/>
<path d="M60 65.1839L89.9985 47.8779L120 65.1855V99.8004L60 65.1839Z" fill="#0A5554"/>
</g>
</svg>
