<svg width="120" height="96" viewBox="0 0 120 96" fill="none" xmlns="http://www.w3.org/2000/svg">
<mask id="mask0" mask-type="alpha" maskUnits="userSpaceOnUse" x="0" y="0" width="120" height="96">
<path d="M8.30596 0.876533L60.0009 30.6996L111.694 0.876716C115.386 -1.25343 120 1.41132 120 5.67398V90.34C120 94.6027 115.386 97.2675 111.694 95.1373L60 65.3131L8.30608 95.1373C4.61383 97.2675 0 94.6027 0 90.34V5.67383C0 1.41121 4.61371 -1.25355 8.30596 0.876533Z" fill="#C4C4C4"/>
</mask>
<g mask="url(#mask0)">
<path d="M8.30596 0.876533L60.0009 30.6996L111.694 0.876716C115.386 -1.25343 120 1.41132 120 5.67398V90.34C120 94.6027 115.386 97.2675 111.694 95.1373L60.0016 65.3141H59.9984L8.30608 95.1373C4.61383 97.2675 0 94.6027 0 90.34V5.67383C0 1.41121 4.61371 -1.25355 8.30596 0.876533Z" fill="#1B806A"/>
<path d="M120.001 -4.05005L60.0015 30.5648L0 -4.04968V30.5652L59.9991 65.18L60.0015 65.1778L120.001 30.5648V-4.05005Z" fill="#36B37E"/>
<path d="M89.9984 47.8773L59.9995 30.5701L0 65.1845V99.7994L59.9999 65.1833L89.9984 47.8773Z" fill="#0A5554"/>
<path d="M60 65.1833L89.9985 47.8773L120 65.1849V99.7998L60 65.1833Z" fill="#0A5554"/>
</g>
<mask id="mask1" mask-type="alpha" maskUnits="userSpaceOnUse" x="30" y="30" width="60" height="36">
<path d="M59.9985 30.5701L89.9974 47.8773L59.9991 65.1834L30.0005 47.8773L59.9985 30.5701Z" fill="#1B806A"/>
</mask>
<g mask="url(#mask1)">
<path d="M59.9985 30.5701L89.9974 47.8773L59.9991 65.1834L30.0005 47.8773L59.9985 30.5701Z" fill="#1B806A"/>
</g>
</svg>
