<svg width="15" height="16" viewBox="0 0 15 16" fill="none" xmlns="http://www.w3.org/2000/svg">
<path fill-rule="evenodd" clip-rule="evenodd" d="M0.390524 6.27614C0.140476 6.02609 0 5.68696 0 5.33333V4C0 3.64638 0.140476 3.30724 0.390524 3.05719C0.640573 2.80714 0.979711 2.66667 1.33333 2.66667H4V1.33333C4 0.979711 4.14048 0.640573 4.39052 0.390524C4.64057 0.140476 4.97971 0 5.33333 0H9.33333C9.68696 0 10.0261 0.140476 10.2761 0.390524C10.5262 0.640573 10.6667 0.979711 10.6667 1.33333V2.66667H13.3333C13.687 2.66667 14.0261 2.80714 14.2761 3.05719C14.5262 3.30724 14.6667 3.64638 14.6667 4V5.33333C14.6667 5.68696 14.5262 6.02609 14.2761 6.27614C14.0261 6.52619 13.687 6.66667 13.3333 6.66667V13.3333C13.3333 14.0406 13.0524 14.7189 12.5523 15.219C12.0522 15.719 11.3739 16 10.6667 16H4C3.29276 16 2.61448 15.719 2.11438 15.219C1.61428 14.7189 1.33333 14.0406 1.33333 13.3333V6.66667C0.979711 6.66667 0.640573 6.52619 0.390524 6.27614ZM11.6095 14.2761C11.8595 14.0261 12 13.687 12 13.3333V6.66667H2.66667V13.3333C2.66667 13.687 2.80714 14.0261 3.05719 14.2761C3.30724 14.5262 3.64638 14.6667 4 14.6667H10.6667C11.0203 14.6667 11.3594 14.5262 11.6095 14.2761ZM9.33333 1.33333H5.33333V2.66667H9.33333V1.33333ZM13.3333 4H1.33333V5.33333H13.3333V4ZM5.13807 13.1381C5.01305 13.2631 4.84348 13.3333 4.66667 13.3333C4.48986 13.3333 4.32029 13.2631 4.19526 13.1381C4.07024 13.013 4 12.8435 4 12.6667V8.66667C4 8.48986 4.07024 8.32029 4.19526 8.19526C4.32029 8.07024 4.48986 8 4.66667 8C4.84348 8 5.01305 8.07024 5.13807 8.19526C5.2631 8.32029 5.33333 8.48986 5.33333 8.66667V12.6667C5.33333 12.8435 5.2631 13.013 5.13807 13.1381ZM7.33333 13.3333C7.51014 13.3333 7.67971 13.2631 7.80474 13.1381C7.92976 13.013 8 12.8435 8 12.6667V8.66667C8 8.48986 7.92976 8.32029 7.80474 8.19526C7.67971 8.07024 7.51014 8 7.33333 8C7.15652 8 6.98695 8.07024 6.86193 8.19526C6.7369 8.32029 6.66667 8.48986 6.66667 8.66667V12.6667C6.66667 12.8435 6.7369 13.013 6.86193 13.1381C6.98695 13.2631 7.15652 13.3333 7.33333 13.3333ZM10.4714 13.1381C10.3464 13.2631 10.1768 13.3333 10 13.3333C9.82319 13.3333 9.65362 13.2631 9.52859 13.1381C9.40357 13.013 9.33333 12.8435 9.33333 12.6667V8.66667C9.33333 8.48986 9.40357 8.32029 9.52859 8.19526C9.65362 8.07024 9.82319 8 10 8C10.1768 8 10.3464 8.07024 10.4714 8.19526C10.5964 8.32029 10.6667 8.48986 10.6667 8.66667V12.6667C10.6667 12.8435 10.5964 13.013 10.4714 13.1381Z" fill="white"/>
</svg>
