<svg width="110" height="24" viewBox="0 0 110 24" fill="none" xmlns="http://www.w3.org/2000/svg">
<mask id="mask0" mask-type="alpha" maskUnits="userSpaceOnUse" x="0" y="0" width="30" height="24">
<path d="M2.03799 0.687767L14.7221 8.0053L27.4058 0.687811C28.3117 0.165149 29.4438 0.818986 29.4438 1.86489V22.639C29.4438 23.6849 28.3117 24.3387 27.4057 23.816L14.7223 16.4985L14.7221 16.4986V16.4984L14.7219 16.4982L14.7217 16.4984V16.4986L14.7215 16.4985L2.03802 23.816C1.13207 24.3387 0 23.6849 0 22.639V1.86486C0 0.818958 1.13204 0.16512 2.03799 0.687767Z" fill="#C4C4C4"/>
</mask>
<g mask="url(#mask0)">
<path d="M14.7219 16.4965L7.3608 12.25L0 16.4969V24.9901L14.7219 16.4965Z" fill="#0A5554"/>
<path d="M7.36094 12.2502L0 16.4972V8.00391L7.36094 12.2502Z" fill="#1B806A"/>
<path d="M0 -0.488281L14.7217 8.00498V16.4982L0 8.00498V-0.488281Z" fill="#36B37E"/>
<path d="M14.7217 16.4965L22.0828 12.25L29.4436 16.4969V24.9901L14.7217 16.4965Z" fill="#0A5554"/>
<path d="M22.082 12.2502L29.443 16.4972V8.00391L22.082 12.2502Z" fill="#1B806A"/>
<path d="M29.4433 -0.488281L14.7217 8.00498V16.4982L29.4433 8.00498V-0.488281Z" fill="#36B37E"/>
<path d="M14.7218 8.00391L22.0825 12.2505L14.7219 16.4968L7.36133 12.2505L14.7218 8.00391Z" fill="#1B806A"/>
</g>
<path d="M43.3799 22.2094V6.57596H48.0017V8.53014C48.2912 7.84772 48.8082 7.29973 49.5526 6.88615C50.297 6.45188 51.1346 6.23475 52.0651 6.23475C53.0991 6.23475 53.9779 6.45188 54.7017 6.88615C55.4255 7.29973 55.9631 7.90976 56.3147 8.71625C57.1832 7.06192 58.9202 6.23475 61.5258 6.23475C63.2835 6.23475 64.6484 6.81377 65.6203 7.9718C66.5922 9.10915 67.0782 10.6911 67.0782 12.7177V22.2094H62.4564V13.276C62.4564 12.6143 62.3426 12.0456 62.1152 11.57C61.8877 11.0943 61.5878 10.7738 61.2156 10.6084C60.8434 10.4223 60.4815 10.3292 60.13 10.3292C59.3855 10.3292 58.7651 10.6291 58.2688 11.2288C57.7726 11.8078 57.5244 12.5419 57.5244 13.4311V22.2094H52.9026V13.276C52.9026 12.6143 52.7889 12.0456 52.5614 11.57C52.3339 11.0943 52.0341 10.7738 51.6619 10.6084C51.2896 10.4223 50.9278 10.3292 50.5762 10.3292C50.2247 10.3292 49.8421 10.4326 49.4285 10.6394C49.0356 10.8255 48.6944 11.1771 48.4049 11.694C48.1361 12.1903 48.0017 12.7694 48.0017 13.4311V22.2094H43.3799Z" fill="white"/>
<path d="M73.5727 5.24216C72.8696 5.24216 72.2492 4.98367 71.7116 4.46669C71.1946 3.94971 70.9361 3.33968 70.9361 2.63659C70.9361 1.91282 71.1946 1.29244 71.7116 0.775466C72.2492 0.258488 72.8696 0 73.5727 0C74.2965 0 74.9168 0.258488 75.4338 0.775466C75.9508 1.29244 76.2093 1.91282 76.2093 2.63659C76.2093 2.96745 76.1162 3.33968 75.9301 3.75326C75.7647 4.16684 75.4545 4.51839 74.9995 4.80789C74.5653 5.0974 74.0897 5.24216 73.5727 5.24216ZM71.2773 22.2094V6.57596H75.8991V22.2094H71.2773Z" fill="white"/>
<path d="M80.2424 22.2094V6.57596H84.8642V8.71625C85.2158 7.93044 85.7948 7.32041 86.6013 6.88615C87.4077 6.45188 88.3383 6.23475 89.3929 6.23475C89.7031 6.23475 90.1064 6.26577 90.6027 6.32781V10.6704C90.1271 10.567 89.6101 10.5153 89.0517 10.5153C87.749 10.5153 86.7253 10.8772 85.9809 11.601C85.2364 12.3248 84.8642 13.3174 84.8642 14.5788V22.2094H80.2424Z" fill="white"/>
<path d="M92.7054 14.3927C92.7054 13.2967 92.9018 12.2524 93.2948 11.2598C93.6877 10.2672 94.2356 9.39866 94.9387 8.65421C95.6418 7.90976 96.469 7.33075 97.4202 6.91716C98.3715 6.50358 99.3848 6.29679 100.46 6.29679C101.018 6.29679 101.628 6.36917 102.29 6.51392C102.952 6.65868 103.541 6.92751 104.058 7.32041C104.596 7.69263 104.947 8.12689 105.113 8.62319V6.57596H109.735V22.2094H105.113V20.1621C104.885 20.8239 104.337 21.3822 103.469 21.8371C102.621 22.2714 101.618 22.4885 100.46 22.4885C99.3848 22.4885 98.3715 22.2818 97.4202 21.8682C96.469 21.4546 95.6418 20.8756 94.9387 20.1311C94.2356 19.3867 93.6877 18.5182 93.2948 17.5256C92.9018 16.533 92.7054 15.4887 92.7054 14.3927ZM97.3272 14.3927C97.3272 15.4887 97.7097 16.4192 98.4749 17.1843C99.24 17.9288 100.181 18.301 101.298 18.301C101.815 18.301 102.394 18.1769 103.035 17.9288C103.676 17.66 104.224 17.205 104.679 16.564C105.154 15.9022 105.392 15.1785 105.392 14.3927C105.392 13.6069 105.154 12.8934 104.679 12.2524C104.224 11.5906 103.676 11.1357 103.035 10.8876C102.394 10.6187 101.815 10.4843 101.298 10.4843C100.181 10.4843 99.24 10.8669 98.4749 11.632C97.7097 12.3765 97.3272 13.2967 97.3272 14.3927Z" fill="white"/>
</svg>
